<svg width="30" height="31" viewBox="0 0 30 31" fill="none" xmlns="http://www.w3.org/2000/svg">
<path fill-rule="evenodd" clip-rule="evenodd" d="M13.9243 0.201792L2.29805 3.65748C0.996438 4.04293 0.124999 5.08249 0.124999 6.25025V16.3624C0.124999 19.4424 1.44258 22.4092 3.81596 24.7204C4.93392 25.8112 6.35837 26.7187 8.08629 27.5081L14.3816 30.3811C14.7744 30.5604 15.2475 30.5603 15.6402 30.3808L21.9243 27.5096C23.6476 26.7213 25.0722 25.8122 26.1903 24.721C28.56 22.4114 29.875 19.4465 29.875 16.3684V6.25025C29.875 5.08249 29.0036 4.04293 27.7005 3.65705L16.0773 0.202289C15.3815 -0.00484683 14.6215 -0.00484684 13.9243 0.201792ZM15.1978 2.31604L26.8236 5.77158C27.0654 5.84318 27.2257 6.03441 27.2257 6.25025V16.3684C27.2257 18.9057 26.1419 21.3493 24.1888 23.2528L23.842 23.5728C23.0014 24.3068 21.9426 24.9537 20.6646 25.5383L15.0088 28.1211L9.34485 25.5363C7.87977 24.8669 6.70578 24.119 5.81698 23.2518C3.86031 21.3464 2.77431 18.901 2.77431 16.3624V6.25025C2.77431 6.03441 2.93462 5.84318 3.17495 5.77201L14.8016 2.31621C14.9299 2.27818 15.0707 2.27818 15.1978 2.31604ZM21.5718 11.0764C21.0545 10.6388 20.2157 10.6388 19.6984 11.0764L13.7495 16.1072L11.3457 14.0718L11.1971 13.9633C10.6787 13.6377 9.94273 13.6737 9.47232 14.0714C8.95487 14.5088 8.95465 15.2182 9.47182 15.6559L12.8135 18.4838L12.9621 18.5924C13.4806 18.918 14.2167 18.8819 14.6871 18.4841L21.5718 12.6609L21.7 12.5352C22.0848 12.0966 22.042 11.4741 21.5718 11.0764Z" fill="#4838D1"/>
</svg>
