<svg width="87" height="56" viewBox="0 0 87 56" fill="none" xmlns="http://www.w3.org/2000/svg">
<rect x="0.5" y="0.5" width="86" height="55" rx="7.5" fill="white"/>
<g clip-path="url(#clip0_15_523)">
<path d="M54.1754 40.0001C54.9068 40.0001 55.5 39.407 55.5 38.6755V17.3246C55.5 16.593 54.9068 16 54.1754 16H32.8246C32.0929 16 31.5 16.593 31.5 17.3246V38.6755C31.5 39.407 32.0929 40.0001 32.8246 40.0001H54.1754Z" fill="#395185"/>
<path d="M48.0597 40.0001V30.706H51.1794L51.6465 27.084H48.0597V24.7713C48.0597 23.7227 48.351 23.008 49.8548 23.008L51.7728 23.0072V19.7676C51.441 19.7235 50.3025 19.6248 48.978 19.6248C46.2125 19.6248 44.3193 21.3128 44.3193 24.4128V27.084H41.1917V30.706H44.3193V40.0001H48.0597Z" fill="white"/>
</g>
<rect x="0.5" y="0.5" width="86" height="55" rx="7.5" stroke="#4838D1"/>
<defs>
<clipPath id="clip0_15_523">
<rect width="24" height="24" fill="white" transform="translate(31.5 16)"/>
</clipPath>
</defs>
</svg>
