<svg width="87" height="56" viewBox="0 0 87 56" fill="none" xmlns="http://www.w3.org/2000/svg">
<rect x="0.5" y="0.5" width="86" height="55" rx="7.5" fill="white"/>
<g clip-path="url(#clip0_15_517)">
<path d="M54.9263 28.2245C54.9263 27.2412 54.8465 26.5237 54.6739 25.7796H43.4521V30.2176H50.0391C49.9063 31.3205 49.1892 32.9815 47.5956 34.0975L47.5732 34.2461L51.1213 36.9963L51.3672 37.0209C53.6248 34.9347 54.9263 31.8653 54.9263 28.2245Z" fill="#4285F4"/>
<path d="M43.4522 39.9176C46.6793 39.9176 49.3884 38.8545 51.3673 37.0209L47.5956 34.0976C46.5864 34.8018 45.2318 35.2934 43.4522 35.2934C40.2916 35.2934 37.609 33.2074 36.6527 30.324L36.5125 30.3359L32.8232 33.1927L32.7749 33.3269C34.7404 37.2334 38.7776 39.9176 43.4522 39.9176Z" fill="#34A853"/>
<path d="M36.6527 30.3239C36.4004 29.5799 36.2543 28.7825 36.2543 27.9588C36.2543 27.1349 36.4004 26.3377 36.6394 25.5936L36.6327 25.4351L32.8971 22.5324L32.7749 22.5905C31.9648 24.2116 31.5 26.0321 31.5 27.9588C31.5 29.8854 31.9648 31.7058 32.7749 33.3269L36.6527 30.3239Z" fill="#FBBC05"/>
<path d="M43.4522 20.624C45.6966 20.624 47.2105 21.594 48.0737 22.4046L51.4469 19.1093C49.3752 17.1826 46.6793 16 43.4522 16C38.7776 16 34.7404 18.6841 32.7749 22.5906L36.6394 25.5936C37.609 22.7102 40.2916 20.624 43.4522 20.624Z" fill="#EB4335"/>
</g>
<rect x="0.5" y="0.5" width="86" height="55" rx="7.5" stroke="#4838D1"/>
<defs>
<clipPath id="clip0_15_517">
<rect width="24" height="24" fill="white" transform="translate(31.5 16)"/>
</clipPath>
</defs>
</svg>
