<svg width="160" height="160" viewBox="0 0 160 160" fill="none" xmlns="http://www.w3.org/2000/svg">
<path fill-rule="evenodd" clip-rule="evenodd" d="M67.1999 99.2C84.8731 99.2 99.1999 84.8731 99.1999 67.2C99.1999 49.5269 84.8731 35.2 67.1999 35.2C49.5268 35.2 35.2 49.5269 35.2 67.2C35.2 84.8731 49.5268 99.2 67.1999 99.2ZM67.1999 115.2C93.7096 115.2 115.2 93.7097 115.2 67.2C115.2 40.6903 93.7096 19.2 67.1999 19.2C40.6903 19.2 19.2 40.6903 19.2 67.2C19.2 93.7097 40.6903 115.2 67.1999 115.2Z" fill="#4838D1"/>
<path d="M137.6 121.6C137.6 130.437 130.437 137.6 121.6 137.6C112.763 137.6 105.6 130.437 105.6 121.6C105.6 112.763 112.763 105.6 121.6 105.6C130.437 105.6 137.6 112.763 137.6 121.6Z" fill="#F77A55"/>
</svg>
