<svg width="87" height="56" viewBox="0 0 87 56" fill="none" xmlns="http://www.w3.org/2000/svg">
<rect x="0.5" y="0.5" width="86" height="55" rx="7.5" fill="white"/>
<g clip-path="url(#clip0_15_527)">
<path d="M55.5 20.636C54.6169 21.0276 53.6679 21.2922 52.6719 21.4113C53.6887 20.8019 54.4693 19.8369 54.8369 18.6872C53.8704 19.2607 52.8129 19.6648 51.7103 19.882C50.812 18.9251 49.5324 18.3271 48.1162 18.3271C45.3968 18.3271 43.1921 20.5317 43.1921 23.2508C43.1921 23.6368 43.2357 24.0126 43.3196 24.373C39.2274 24.1676 35.5993 22.2074 33.1707 19.2284C32.747 19.9556 32.5042 20.8015 32.5042 21.7038C32.5042 23.4121 33.3735 24.9191 34.6946 25.8021C33.9127 25.7777 33.148 25.5665 32.4643 25.1862C32.464 25.2068 32.464 25.2275 32.464 25.2482C32.464 27.6338 34.1613 29.624 36.4137 30.0763C35.6886 30.2735 34.9281 30.3024 34.1902 30.1607C34.8167 32.1169 36.6352 33.5404 38.7897 33.5802C37.1046 34.9008 34.9814 35.688 32.6746 35.688C32.2771 35.688 31.8852 35.6646 31.5 35.6192C33.679 37.0162 36.2672 37.8314 39.0478 37.8314C48.1047 37.8314 53.0573 30.3285 53.0573 23.8219C53.0573 23.6083 53.0526 23.396 53.043 23.1848C54.007 22.488 54.839 21.6249 55.5 20.636Z" fill="#55ACEE"/>
</g>
<rect x="0.5" y="0.5" width="86" height="55" rx="7.5" stroke="#4838D1"/>
<defs>
<clipPath id="clip0_15_527">
<rect width="24" height="24" fill="white" transform="translate(31.5 16)"/>
</clipPath>
</defs>
</svg>
