<svg width="348" height="159" viewBox="0 0 348 159" fill="none" xmlns="http://www.w3.org/2000/svg">
<path fill-rule="evenodd" clip-rule="evenodd" d="M68 86.1667C79.0457 86.1667 88 77.3616 88 66.5C88 55.6384 79.0457 46.8333 68 46.8333C56.9543 46.8333 48 55.6384 48 66.5C48 77.3616 56.9543 86.1667 68 86.1667ZM68 96C84.5685 96 98 82.7924 98 66.5C98 50.2076 84.5685 37 68 37C51.4315 37 38 50.2076 38 66.5C38 82.7924 51.4315 96 68 96Z" fill="#4838D1"/>
<path d="M113 103C113 107.971 108.747 112 103.5 112C98.2533 112 94 107.971 94 103C94 98.0294 98.2533 94 103.5 94C108.747 94 113 98.0294 113 103Z" fill="#F77A55"/>
<path d="M138.968 75.032H130.584L129.24 79H123.512L131.64 56.536H137.976L146.104 79H140.312L138.968 75.032ZM137.56 70.808L134.776 62.584L132.024 70.808H137.56ZM166.21 61.144V79H160.738V76.568C160.183 77.3573 159.426 77.9973 158.466 78.488C157.527 78.9573 156.482 79.192 155.33 79.192C153.964 79.192 152.759 78.8933 151.714 78.296C150.668 77.6773 149.858 76.792 149.282 75.64C148.706 74.488 148.418 73.1333 148.418 71.576V61.144H153.858V70.84C153.858 72.0347 154.167 72.9627 154.786 73.624C155.404 74.2853 156.236 74.616 157.282 74.616C158.348 74.616 159.191 74.2853 159.81 73.624C160.428 72.9627 160.738 72.0347 160.738 70.84V61.144H166.21ZM169.052 70.04C169.052 68.2053 169.394 66.5947 170.076 65.208C170.78 63.8213 171.73 62.7547 172.924 62.008C174.119 61.2613 175.452 60.888 176.924 60.888C178.098 60.888 179.164 61.1333 180.124 61.624C181.106 62.1147 181.874 62.776 182.428 63.608V55.32H187.9V79H182.428V76.44C181.916 77.2933 181.18 77.976 180.22 78.488C179.282 79 178.183 79.256 176.924 79.256C175.452 79.256 174.119 78.8827 172.924 78.136C171.73 77.368 170.78 76.2907 170.076 74.904C169.394 73.496 169.052 71.8747 169.052 70.04ZM182.428 70.072C182.428 68.7067 182.044 67.6293 181.276 66.84C180.53 66.0507 179.612 65.656 178.524 65.656C177.436 65.656 176.508 66.0507 175.74 66.84C174.994 67.608 174.62 68.6747 174.62 70.04C174.62 71.4053 174.994 72.4933 175.74 73.304C176.508 74.0933 177.436 74.488 178.524 74.488C179.612 74.488 180.53 74.0933 181.276 73.304C182.044 72.5147 182.428 71.4373 182.428 70.072ZM194.611 59.288C193.651 59.288 192.862 59.0107 192.243 58.456C191.646 57.88 191.347 57.176 191.347 56.344C191.347 55.4907 191.646 54.7867 192.243 54.232C192.862 53.656 193.651 53.368 194.611 53.368C195.55 53.368 196.318 53.656 196.915 54.232C197.534 54.7867 197.843 55.4907 197.843 56.344C197.843 57.176 197.534 57.88 196.915 58.456C196.318 59.0107 195.55 59.288 194.611 59.288ZM197.331 61.144V79H191.859V61.144H197.331ZM204.689 64.728C205.286 63.6827 206.161 62.8293 207.312 62.168C208.465 61.5067 209.777 61.176 211.249 61.176C212.827 61.176 214.246 61.5493 215.505 62.296C216.763 63.0427 217.755 64.0987 218.481 65.464C219.206 66.808 219.569 68.376 219.569 70.168C219.569 71.9387 219.206 73.5173 218.481 74.904C217.755 76.2907 216.752 77.368 215.472 78.136C214.214 78.904 212.806 79.288 211.249 79.288C209.734 79.288 208.401 78.9573 207.249 78.296C206.118 77.6347 205.265 76.792 204.689 75.768V79H201.777V55.32H204.689V64.728ZM216.593 70.168C216.593 68.8453 216.326 67.6933 215.793 66.712C215.259 65.7307 214.534 64.984 213.617 64.472C212.721 63.96 211.729 63.704 210.641 63.704C209.574 63.704 208.582 63.9707 207.665 64.504C206.769 65.016 206.043 65.7733 205.489 66.776C204.955 67.7573 204.689 68.8987 204.689 70.2C204.689 71.5227 204.955 72.6853 205.489 73.688C206.043 74.6693 206.769 75.4267 207.665 75.96C208.582 76.472 209.574 76.728 210.641 76.728C211.729 76.728 212.721 76.472 213.617 75.96C214.534 75.4267 215.259 74.6693 215.793 73.688C216.326 72.6853 216.593 71.512 216.593 70.168ZM231.05 79.288C229.407 79.288 227.914 78.9147 226.57 78.168C225.247 77.4213 224.202 76.3653 223.434 75C222.687 73.6133 222.314 72.0133 222.314 70.2C222.314 68.408 222.698 66.8293 223.466 65.464C224.255 64.0773 225.322 63.0213 226.666 62.296C228.01 61.5493 229.514 61.176 231.178 61.176C232.842 61.176 234.346 61.5493 235.69 62.296C237.034 63.0213 238.09 64.0667 238.858 65.432C239.647 66.7973 240.042 68.3867 240.042 70.2C240.042 72.0133 239.636 73.6133 238.826 75C238.036 76.3653 236.959 77.4213 235.594 78.168C234.228 78.9147 232.714 79.288 231.05 79.288ZM231.05 76.728C232.095 76.728 233.076 76.4827 233.994 75.992C234.911 75.5013 235.647 74.7653 236.202 73.784C236.778 72.8027 237.066 71.608 237.066 70.2C237.066 68.792 236.788 67.5973 236.234 66.616C235.679 65.6347 234.954 64.9093 234.058 64.44C233.162 63.9493 232.191 63.704 231.146 63.704C230.079 63.704 229.098 63.9493 228.202 64.44C227.327 64.9093 226.623 65.6347 226.09 66.616C225.556 67.5973 225.29 68.792 225.29 70.2C225.29 71.6293 225.546 72.8347 226.058 73.816C226.591 74.7973 227.295 75.5333 228.17 76.024C229.044 76.4933 230.004 76.728 231.05 76.728ZM251.518 79.288C249.876 79.288 248.382 78.9147 247.038 78.168C245.716 77.4213 244.67 76.3653 243.902 75C243.156 73.6133 242.782 72.0133 242.782 70.2C242.782 68.408 243.166 66.8293 243.934 65.464C244.724 64.0773 245.79 63.0213 247.134 62.296C248.478 61.5493 249.982 61.176 251.646 61.176C253.31 61.176 254.814 61.5493 256.158 62.296C257.502 63.0213 258.558 64.0667 259.326 65.432C260.116 66.7973 260.51 68.3867 260.51 70.2C260.51 72.0133 260.105 73.6133 259.294 75C258.505 76.3653 257.428 77.4213 256.062 78.168C254.697 78.9147 253.182 79.288 251.518 79.288ZM251.518 76.728C252.564 76.728 253.545 76.4827 254.462 75.992C255.38 75.5013 256.116 74.7653 256.67 73.784C257.246 72.8027 257.534 71.608 257.534 70.2C257.534 68.792 257.257 67.5973 256.702 66.616C256.148 65.6347 255.422 64.9093 254.526 64.44C253.63 63.9493 252.66 63.704 251.614 63.704C250.548 63.704 249.566 63.9493 248.67 64.44C247.796 64.9093 247.092 65.6347 246.558 66.616C246.025 67.5973 245.758 68.792 245.758 70.2C245.758 71.6293 246.014 72.8347 246.526 73.816C247.06 74.7973 247.764 75.5333 248.638 76.024C249.513 76.4933 250.473 76.728 251.518 76.728ZM274.131 79L267.251 71.256V79H264.339V55.32H267.251V69.24L274.003 61.464H278.067L269.811 70.2L278.099 79H274.131ZM287.016 79.288C285.672 79.288 284.466 79.064 283.4 78.616C282.333 78.1467 281.49 77.5067 280.872 76.696C280.253 75.864 279.912 74.9147 279.848 73.848H282.856C282.941 74.7227 283.346 75.4373 284.072 75.992C284.818 76.5467 285.789 76.824 286.984 76.824C288.093 76.824 288.968 76.5787 289.608 76.088C290.248 75.5973 290.568 74.9787 290.568 74.232C290.568 73.464 290.226 72.8987 289.544 72.536C288.861 72.152 287.805 71.7787 286.376 71.416C285.074 71.0747 284.008 70.7333 283.176 70.392C282.365 70.0293 281.661 69.5067 281.064 68.824C280.488 68.12 280.2 67.2027 280.2 66.072C280.2 65.176 280.466 64.3547 281 63.608C281.533 62.8613 282.29 62.2747 283.272 61.848C284.253 61.4 285.373 61.176 286.632 61.176C288.573 61.176 290.141 61.6667 291.336 62.648C292.53 63.6293 293.17 64.9733 293.256 66.68H290.344C290.28 65.7627 289.906 65.0267 289.224 64.472C288.562 63.9173 287.666 63.64 286.536 63.64C285.49 63.64 284.658 63.864 284.04 64.312C283.421 64.76 283.112 65.3467 283.112 66.072C283.112 66.648 283.293 67.128 283.656 67.512C284.04 67.8747 284.509 68.1733 285.064 68.408C285.64 68.6213 286.429 68.8667 287.432 69.144C288.69 69.4853 289.714 69.8267 290.504 70.168C291.293 70.488 291.965 70.9787 292.52 71.64C293.096 72.3013 293.394 73.1653 293.416 74.232C293.416 75.192 293.149 76.056 292.616 76.824C292.082 77.592 291.325 78.2 290.344 78.648C289.384 79.0747 288.274 79.288 287.016 79.288ZM298.455 79.192C297.9 79.192 297.431 79 297.047 78.616C296.663 78.232 296.471 77.7627 296.471 77.208C296.471 76.6533 296.663 76.184 297.047 75.8C297.431 75.416 297.9 75.224 298.455 75.224C298.988 75.224 299.436 75.416 299.799 75.8C300.183 76.184 300.375 76.6533 300.375 77.208C300.375 77.7627 300.183 78.232 299.799 78.616C299.436 79 298.988 79.192 298.455 79.192Z" fill="#4838D1"/>
</svg>
